{
	"asset":{
		"generator":"Khronos glTF Blender I/O v4.5.48",
		"version":"2.0"
	},
	"extensionsUsed":[
		"KHR_materials_specular"
	],
	"scene":0,
	"scenes":[
		{
			"name":"Scene",
			"nodes":[
				0
			]
		}
	],
	"nodes":[
		{
			"mesh":0,
			"name":"Sphere"
		}
	],
	"materials":[
		{
			"doubleSided":true,
			"extensions":{},
			"name":"Material.001",
			"pbrMetallicRoughness":{
				"metallicFactor":0,
				"roughnessFactor":0.5
			}
		}
	],
	"meshes":[
		{
			"name":"Sphere.001",
			"primitives":[
				{
					"attributes":{
						"POSITION":0,
						"NORMAL":1,
						"TEXCOORD_0":2
					},
					"indices":3,
					"material":0
				}
			]
		}
	],
	"accessors":[
		{
			"bufferView":0,
			"componentType":5126,
			"count":65280,
			"max":[
				4.999999046325684,
				5,
				4.999998092651367
			],
			"min":[
				-4.999997615814209,
				-5,
				-5
			],
			"type":"VEC3"
		},
		{
			"bufferView":1,
			"componentType":5126,
			"count":65280,
			"type":"VEC3"
		},
		{
			"bufferView":2,
			"componentType":5126,
			"count":65280,
			"type":"VEC2"
		},
		{
			"bufferView":3,
			"componentType":5123,
			"count":97536,
			"type":"SCALAR"
		}
	],
	"bufferViews":[
		{
			"buffer":0,
			"byteLength":783360,
			"byteOffset":0,
			"target":34962
		},
		{
			"buffer":0,
			"byteLength":783360,
			"byteOffset":783360,
			"target":34962
		},
		{
			"buffer":0,
			"byteLength":522240,
			"byteOffset":1566720,
			"target":34962
		},
		{
			"buffer":0,
			"byteLength":195072,
			"byteOffset":2088960,
			"target":34963
		}
	],
	"buffers":[
		{
			"byteLength":2284032,
			"uri":"sphere.bin"
		}
	]
}
